<?xml version="1.0" standalone="no"?>
<!DOCTYPE svg PUBLIC "-//W3C//DTD SVG 20010904//EN"
 "http://www.w3.org/TR/2001/REC-SVG-20010904/DTD/svg10.dtd">
<svg version="1.0" xmlns="http://www.w3.org/2000/svg"
 width="900.000000pt" height="979.000000pt" viewBox="0 0 900.000000 979.000000"
 preserveAspectRatio="xMidYMid meet">

<g transform="translate(0.000000,979.000000) scale(0.100000,-0.100000)"
fill="#000000" stroke="none">
<path d="M6187 9784 c-4 -4 -73 -8 -154 -10 -82 -1 -161 -5 -178 -8 -16 -3
-42 -7 -57 -10 -14 -2 -35 -9 -45 -16 -14 -9 -9 -10 27 -5 75 11 111 14 215
15 108 2 154 -5 170 -27 13 -17 164 -35 181 -21 6 4 32 9 58 10 25 1 46 4 46
5 0 13 -91 43 -150 51 -41 5 -82 12 -91 16 -8 4 -18 3 -22 0z"/>
<path d="M5197 9733 c-4 -3 -7 -15 -7 -25 0 -15 5 -17 28 -12 52 13 60 22 29
33 -33 13 -41 13 -50 4z"/>
<path d="M5655 9723 c-11 -2 -38 -11 -60 -18 -40 -14 -144 -14 -252 -1 -57 7
-72 -6 -29 -25 15 -7 22 -17 19 -29 -6 -21 22 -50 47 -50 10 0 22 -4 25 -10
14 -22 53 -9 92 31 34 34 50 42 94 48 60 8 110 29 117 49 4 12 -14 14 -53 5z"/>
<path d="M6480 9682 c0 -13 59 -66 66 -60 6 7 -15 49 -31 60 -13 10 -35 10
-35 0z"/>
<path d="M5187 9646 c-10 -8 -26 -12 -36 -9 -26 7 -42 -37 -52 -145 -5 -53
-22 -134 -38 -185 -16 -51 -37 -135 -45 -187 -19 -109 -34 -130 -114 -167
l-54 -23 7 -43 c9 -55 20 -73 53 -94 15 -9 44 -35 65 -57 31 -33 37 -47 35
-75 -3 -32 -9 -37 -94 -80 -50 -26 -124 -71 -165 -100 l-74 -52 -85 7 c-98 7
-165 -6 -173 -35 -8 -32 19 -90 66 -140 25 -26 52 -61 60 -77 22 -42 114 -118
175 -144 35 -15 52 -28 52 -40 0 -23 20 -30 85 -30 29 0 72 -7 96 -15 24 -9
78 -19 120 -22 l77 -6 28 -59 c52 -109 78 -94 28 17 -15 35 -21 62 -16 67 12
12 79 -16 112 -46 40 -38 65 -46 134 -46 76 0 82 -9 40 -60 -19 -21 -24 -34
-16 -42 5 -5 47 -16 93 -23 46 -7 89 -14 95 -16 5 -2 25 13 44 34 35 41 95 76
120 70 23 -5 134 102 126 122 -4 12 -1 16 12 13 9 -2 18 -13 20 -25 2 -14 12
-23 25 -25 15 -2 21 -9 19 -23 -2 -20 -2 -20 12 -1 14 17 16 17 21 3 6 -14 8
-14 23 2 9 10 24 31 32 47 10 19 25 30 43 32 20 3 25 0 21 -11 -4 -11 5 -17
34 -22 28 -4 43 -13 50 -31 7 -13 16 -24 22 -24 5 0 10 -13 10 -30 0 -16 5
-30 10 -30 6 0 10 -9 10 -19 0 -25 30 -18 61 15 30 32 50 30 71 -6 l17 -29 62
28 62 28 1 46 c0 26 -1 47 -4 47 -20 0 -56 185 -41 204 7 9 7 16 -1 24 -9 9
16 25 104 67 64 30 122 55 129 55 6 0 26 15 44 34 18 20 50 39 72 45 22 6 61
27 86 46 25 19 51 35 58 35 6 0 19 8 28 19 9 10 25 20 36 22 11 2 24 14 30 26
5 13 22 27 37 32 16 6 28 17 28 25 0 9 7 16 14 16 25 0 104 120 91 139 -3 5
-14 7 -25 4 -14 -4 -20 -14 -20 -33 0 -21 -14 -41 -57 -80 -31 -29 -67 -56
-80 -61 -13 -5 -23 -14 -23 -22 0 -16 -49 -35 -115 -43 -28 -4 -56 -11 -62
-17 -9 -7 -13 -5 -13 8 0 14 -6 16 -31 11 -17 -3 -51 -6 -75 -6 -39 0 -43 -2
-46 -27 -2 -14 -9 -28 -16 -29 -7 -1 -8 0 -2 3 16 8 12 23 -5 17 -9 -4 -13
-13 -10 -24 5 -16 -15 -34 -95 -82 -49 -29 -121 -48 -240 -63 -41 -6 -100 12
-97 28 2 13 -105 16 -140 4 -19 -7 -23 -5 -23 11 0 30 35 68 95 102 30 17 55
36 55 41 0 5 27 22 60 38 33 16 77 42 97 58 21 16 55 36 75 45 29 13 39 26 47
55 6 21 22 49 36 62 14 13 25 26 25 30 0 18 -42 43 -79 48 -40 6 -41 7 -41 45
0 47 -13 54 -63 33 -41 -17 -67 -19 -67 -6 0 5 17 12 38 16 27 5 46 18 72 50
19 24 55 58 80 76 25 18 50 40 57 49 20 26 32 81 38 174 5 81 4 90 -15 108
-11 10 -20 31 -20 48 0 16 -4 32 -10 35 -6 3 -10 -4 -10 -16 0 -19 -4 -16 -28
17 -15 21 -42 69 -60 106 -38 77 -51 87 -125 94 -28 3 -81 10 -117 17 -37 6
-173 12 -315 12 l-250 1 -35 -26 c-89 -67 -120 -79 -200 -76 -41 2 -88 8 -105
13 -46 13 -103 52 -110 74 -7 22 -23 24 -48 5z"/>
<path d="M6537 9594 c-3 -4 0 -18 7 -33 7 -14 16 -39 20 -55 5 -20 10 -26 18
-18 7 7 6 22 -2 49 -7 21 -14 44 -16 51 -4 13 -17 16 -27 6z"/>
<path d="M935 9384 c-14 -15 -28 -39 -31 -53 -3 -14 -10 -43 -16 -64 -9 -29
-9 -43 0 -57 9 -16 7 -26 -16 -60 -15 -23 -40 -48 -57 -55 l-30 -13 29 -11
c28 -11 28 -12 11 -31 -10 -11 -26 -20 -36 -20 -20 0 -49 -36 -49 -60 0 -8 -8
-31 -18 -50 -20 -36 -54 -50 -186 -71 -32 -5 -84 -16 -116 -24 -32 -8 -97 -15
-144 -15 -74 0 -90 -3 -109 -20 -43 -41 -106 -33 -92 11 9 28 -8 23 -45 -11
-28 -26 -32 -35 -26 -63 7 -34 36 -63 75 -73 23 -7 139 9 191 25 14 4 48 2 77
-4 28 -7 65 -10 81 -7 16 2 33 -1 36 -7 13 -20 36 -12 36 12 0 28 26 42 94 52
43 7 46 6 46 -14 0 -26 -23 -73 -44 -90 -22 -18 -20 -73 4 -103 10 -14 34 -31
51 -38 17 -8 42 -24 55 -37 13 -13 31 -23 41 -23 16 1 16 3 -3 18 -12 9 -30
22 -39 27 -10 6 -16 16 -14 23 3 7 20 0 48 -18 24 -17 52 -30 62 -30 24 0 33
-18 19 -35 -9 -11 -6 -17 14 -30 14 -9 29 -14 34 -11 5 3 18 -1 28 -9 14 -11
53 -14 155 -15 120 0 144 -3 205 -25 38 -14 70 -25 71 -25 2 0 17 -25 34 -54
28 -50 35 -56 84 -71 50 -14 55 -18 78 -69 24 -52 129 -178 153 -184 6 -2 19
-26 28 -55 29 -93 206 -321 277 -357 21 -11 45 -34 54 -50 26 -51 97 -139 116
-145 10 -3 30 -20 45 -38 30 -36 63 -57 79 -50 7 2 27 -15 45 -39 29 -37 238
-215 284 -240 21 -12 20 -24 -5 -59 -18 -26 -19 -34 -10 -85 6 -32 24 -78 40
-103 16 -25 34 -63 40 -83 14 -43 26 -54 94 -88 40 -20 61 -40 100 -98 54 -81
78 -96 130 -81 43 12 64 34 72 81 6 31 4 37 -14 43 -32 10 -25 32 18 59 21 14
56 47 77 75 47 60 69 64 90 16 8 -19 18 -35 22 -35 4 0 7 -22 7 -49 0 -37 -5
-55 -22 -73 -15 -16 -19 -28 -13 -37 5 -9 4 -22 -3 -32 -20 -33 15 -46 137
-51 61 -3 116 -2 121 3 6 4 36 9 69 10 46 2 60 -1 67 -14 5 -9 32 -26 59 -39
58 -26 66 -46 45 -114 -8 -27 -16 -49 -17 -49 -1 0 5 -11 15 -25 27 -39 20
-78 -30 -170 -25 -47 -51 -95 -57 -107 -10 -21 -26 -31 -26 -17 0 4 11 38 25
76 28 78 32 118 11 118 -18 0 -74 -70 -103 -129 -12 -25 -57 -83 -100 -129
-74 -78 -82 -83 -130 -88 -44 -6 -50 -9 -45 -26 3 -11 -1 -24 -9 -29 -22 -14
-120 -10 -184 7 -33 8 -69 17 -79 20 -69 14 -125 42 -171 84 -72 69 -123 100
-160 100 -27 0 -40 -9 -77 -52 -24 -29 -55 -69 -68 -88 -62 -92 -380 -419
-534 -549 -42 -36 -78 -73 -81 -82 -4 -10 -14 -21 -24 -24 -17 -5 -176 -158
-262 -251 -35 -37 -37 -43 -42 -130 -7 -104 -14 -127 -33 -120 -13 5 -54 -29
-54 -46 0 -11 -57 -39 -72 -36 -10 2 -13 -16 -13 -67 l-1 -70 -50 -50 c-27
-27 -58 -62 -67 -77 -23 -37 -38 -35 -76 8 -24 30 -33 34 -45 25 -17 -14 -27
-49 -16 -56 10 -6 1 -52 -14 -64 -6 -5 -24 -11 -41 -13 -27 -3 -30 -6 -27 -34
3 -29 0 -32 -35 -38 -21 -3 -53 -19 -71 -34 -31 -25 -32 -29 -21 -60 9 -26 16
-32 41 -32 16 0 39 5 50 11 42 22 39 -7 -4 -57 -64 -72 -120 -154 -116 -170 4
-19 44 3 146 82 43 33 114 82 158 109 43 27 93 61 111 76 18 15 63 46 102 68
38 23 85 59 104 81 19 23 68 65 108 95 41 30 83 62 94 70 12 10 30 13 46 10
19 -4 28 -1 32 9 4 9 13 16 22 16 9 0 27 7 40 16 23 15 27 14 82 -20 32 -20
64 -36 71 -36 16 0 4 -89 -14 -111 -8 -8 -14 -26 -14 -39 0 -13 -12 -41 -26
-61 -16 -24 -24 -47 -22 -66 3 -27 5 -28 50 -25 40 3 47 1 53 -17 5 -15 -2
-32 -24 -60 -17 -22 -31 -51 -31 -66 0 -25 -25 -60 -77 -108 -18 -16 -23 -32
-23 -68 0 -41 -5 -54 -39 -93 -22 -25 -43 -56 -47 -68 -4 -13 -19 -41 -34 -63
-36 -53 -87 -180 -96 -241 -3 -27 -17 -70 -30 -95 -25 -50 -41 -165 -26 -187
22 -32 268 -41 323 -12 13 7 50 34 84 60 33 26 71 53 84 60 22 11 26 10 44
-15 l20 -27 27 32 c25 31 28 32 122 36 125 5 137 -4 104 -76 -13 -27 -28 -56
-35 -64 -11 -13 -7 -16 23 -22 20 -3 36 -9 36 -13 0 -3 -13 -26 -29 -50 -29
-43 -32 -69 -8 -54 7 3 31 19 54 35 23 15 53 32 67 38 14 5 97 50 184 100 88
49 166 90 174 90 26 0 197 91 227 120 41 41 519 283 611 310 41 11 95 29 120
40 25 10 82 25 127 34 46 9 154 34 240 57 143 38 170 41 288 43 l130 1 9 -38
c9 -34 14 -38 49 -44 21 -3 47 -14 57 -25 9 -10 33 -27 53 -37 40 -21 110 -77
173 -139 24 -24 47 -41 53 -38 14 9 71 135 71 157 0 22 20 25 39 6 6 -6 28
-12 47 -12 26 0 34 4 34 18 0 10 11 33 24 50 71 94 103 213 140 536 10 79 21
154 26 167 5 13 7 31 4 39 -4 9 9 28 34 50 72 65 80 165 23 267 -55 98 -80
198 -92 362 -9 121 -17 166 -39 226 -16 44 -34 126 -44 200 -9 69 -19 139 -22
155 -3 17 -9 57 -13 90 -4 33 -9 67 -12 75 -2 9 3 14 16 15 29 0 45 67 22 93
-24 27 -21 49 8 56 29 7 31 23 10 81 -24 65 -20 78 16 70 28 -6 30 -5 21 12
-6 10 -12 34 -14 53 -3 33 -1 35 25 32 21 -2 27 1 27 16 0 11 7 25 15 32 8 7
15 22 15 34 1 21 22 56 34 56 4 0 15 -7 23 -16 26 -26 33 3 11 48 -11 22 -17
42 -15 44 6 7 57 -14 57 -23 1 -27 17 -33 46 -18 16 8 35 15 42 15 6 0 12 6
12 14 0 15 -26 46 -38 46 -4 0 -13 15 -20 33 -7 17 -18 40 -23 50 -7 13 -5 17
6 17 8 0 15 7 15 16 0 12 7 15 26 11 29 -5 44 17 25 36 -23 23 -10 28 25 8 19
-12 37 -21 40 -21 9 0 3 22 -10 36 -34 34 32 114 72 86 24 -17 42 -25 47 -20
2 2 -11 35 -30 73 -37 75 -43 105 -21 105 22 0 139 -138 194 -230 19 -30 40
-59 48 -63 8 -4 25 -30 39 -56 24 -48 59 -71 79 -51 9 9 -50 97 -95 141 -15
14 -34 48 -42 75 -8 28 -26 72 -40 100 -32 60 -43 104 -28 104 24 0 9 33 -34
74 -41 40 -58 76 -36 76 4 0 38 -29 74 -63 36 -35 98 -83 136 -107 39 -23 84
-59 100 -79 16 -20 41 -43 56 -51 15 -8 33 -26 40 -40 28 -50 14 1 -20 76 -30
66 -50 92 -138 178 -57 56 -123 116 -146 134 -54 43 -68 65 -90 145 -14 48
-16 67 -8 70 8 3 6 11 -6 25 -15 17 -24 19 -44 11 -32 -12 -33 -12 -33 6 0 7
8 18 17 24 19 10 19 9 -56 68 -30 23 -91 6 -91 -26 0 -28 -113 2 -133 36 -10
17 -49 17 -92 -2 -34 -13 -36 -13 -51 10 -9 14 -24 25 -34 25 -10 0 -20 8 -22
18 -5 17 -46 42 -95 57 -19 5 -26 0 -45 -39 -25 -53 -40 -56 -88 -21 -26 19
-41 44 -65 109 -33 87 -89 176 -111 176 -7 0 -16 5 -20 11 -7 12 6 11 66 -7
22 -6 23 -5 10 9 -20 21 -131 57 -174 57 -46 0 -54 -27 -30 -101 13 -40 31
-66 67 -100 54 -50 55 -69 4 -69 -18 0 -50 -9 -72 -20 -45 -23 -59 -16 -60 33
0 26 -4 32 -20 30 -11 -1 -44 14 -75 32 -31 19 -86 41 -127 50 -54 12 -74 21
-78 36 -4 10 -4 23 0 28 10 17 -11 21 -49 10 -25 -7 -36 -15 -33 -24 3 -7 -5
-23 -18 -35 -19 -18 -28 -20 -52 -13 -23 8 -27 15 -25 37 3 22 0 27 -14 24 -9
-1 -22 -11 -28 -21 -9 -15 -6 -22 14 -39 33 -26 60 -68 60 -92 0 -19 -7 -19
-82 -1 -21 6 -32 1 -53 -19 -14 -14 -34 -26 -43 -26 -24 0 -94 38 -112 61 -11
13 -26 18 -52 16 -34 -2 -68 -17 -39 -17 7 0 19 -6 27 -14 7 -8 19 -16 26 -18
38 -13 -48 -58 -111 -58 -31 0 -41 -4 -46 -20 -8 -24 -18 -25 -51 -4 -21 14
-29 15 -49 4 -13 -7 -34 -10 -47 -7 -29 8 -39 1 -60 -45 -22 -47 -44 -42 -99
21 -38 44 -40 45 -54 26 -9 -10 -21 -34 -27 -52 -8 -21 -19 -33 -30 -33 -10 0
-18 4 -18 9 0 5 -13 14 -30 20 -98 36 -92 32 -86 62 6 32 -19 126 -40 150 -17
19 -9 29 22 29 13 0 38 -15 58 -36 26 -27 41 -35 62 -32 15 2 29 8 30 13 3 10
-124 75 -145 75 -6 0 -11 6 -11 13 -1 32 -16 39 -48 23 -30 -15 -34 -15 -86
11 -50 24 -55 25 -71 10 -9 -10 -27 -17 -41 -17 -34 0 -43 -29 -15 -49 87 -62
124 -98 166 -161 46 -70 48 -74 39 -119 l-9 -46 -45 1 c-43 1 -48 4 -136 98
-50 53 -99 114 -109 136 -26 58 -70 65 -94 14 -10 -24 -12 -24 -41 -9 -35 18
-38 30 -10 45 30 16 24 36 -28 93 -26 29 -65 73 -86 100 -25 32 -45 47 -61 47
-13 0 -25 -5 -27 -10 -5 -16 -110 7 -129 28 -9 9 -24 39 -34 65 -21 59 -47 71
-128 63 -58 -6 -58 -6 -102 38 -30 29 -59 47 -89 55 -25 6 -48 15 -51 21 -3 5
-26 19 -52 30 -33 15 -44 24 -39 36 3 8 6 18 6 20 0 2 7 4 15 4 22 0 19 17
-20 87 -40 73 -43 93 -15 118 11 10 20 23 20 30 0 18 -72 83 -112 100 -21 8
-38 22 -38 30 0 8 -13 21 -29 30 -16 8 -50 33 -75 55 -39 33 -52 38 -76 33
-38 -7 -81 11 -114 48 -14 16 -33 29 -42 29 -21 0 -43 -29 -44 -56 0 -21 -29
-54 -46 -54 -5 1 -26 16 -47 34 -35 31 -38 38 -39 87 0 46 4 57 27 76 14 13
35 23 46 23 25 0 24 25 -1 58 l-21 26 23 13 c13 7 41 12 64 13 55 0 104 25
104 53 0 28 -38 81 -73 102 -42 25 -88 76 -85 94 5 24 51 25 73 1 10 -11 26
-20 36 -20 17 0 -82 103 -169 176 -36 30 -93 64 -109 64 -16 0 73 -81 105 -95
17 -8 32 -18 32 -24 0 -12 -87 -61 -108 -61 -9 0 -32 -11 -52 -25 l-37 -25
-46 20 c-75 33 -56 75 43 95 19 3 43 9 53 11 26 8 21 49 -8 72 -16 13 -23 26
-19 36 5 13 -1 15 -32 14 -22 -1 -47 2 -56 6 -12 6 -25 0 -43 -20z"/>
<path d="M6658 9254 c-9 -14 -1 -203 11 -274 6 -36 12 -83 13 -105 3 -33 8
-42 33 -54 17 -8 38 -18 47 -23 23 -10 55 -10 62 0 3 5 28 9 56 10 45 1 50 -1
45 -18 -9 -28 6 -31 69 -14 32 8 66 12 75 8 22 -10 113 -4 128 8 7 5 17 7 23
3 6 -4 22 1 36 9 29 20 25 50 -12 106 -40 58 -188 204 -230 225 -21 11 -55 30
-74 41 -74 44 -270 98 -282 78z"/>
<path d="M1410 9120 c0 -5 7 -10 15 -10 8 0 15 5 15 10 0 6 -7 10 -15 10 -8 0
-15 -4 -15 -10z"/>
<path d="M1536 9071 c-7 -10 22 -37 30 -28 9 8 -3 37 -15 37 -5 0 -12 -4 -15
-9z"/>
<path d="M730 9060 c0 -5 -17 -18 -37 -26 -21 -9 -56 -25 -78 -34 -22 -10 -50
-21 -62 -25 -13 -3 -23 -11 -23 -17 0 -6 8 -8 18 -5 9 4 37 12 62 19 25 7 50
17 57 23 7 5 19 16 27 23 8 6 19 12 24 12 17 0 34 28 22 35 -5 3 -10 1 -10 -5z"/>
<path d="M1560 9009 c0 -6 11 -25 25 -43 14 -18 25 -37 25 -42 1 -15 38 -59
45 -53 5 6 -45 108 -68 137 -12 15 -27 16 -27 1z"/>
<path d="M468 8949 c-29 -16 -20 -29 12 -18 16 6 27 15 24 20 -7 11 -15 11
-36 -2z"/>
<path d="M375 8921 c-3 -5 -19 -12 -35 -16 -17 -4 -30 -11 -30 -17 0 -6 13 -7
33 -3 50 11 77 23 77 35 0 13 -37 13 -45 1z"/>
<path d="M4705 8842 c-28 -15 -62 -36 -75 -47 -63 -53 -157 -161 -187 -217
-26 -46 -32 -88 -10 -70 7 6 24 8 37 5 16 -4 21 -3 16 5 -8 14 55 152 93 201
31 41 106 91 137 91 28 0 69 33 60 48 -10 16 -13 15 -71 -16z"/>
<path d="M104 8825 c-15 -11 -16 -14 -3 -15 8 0 24 7 35 15 15 11 16 14 3 15
-8 0 -24 -7 -35 -15z"/>
<path d="M1680 8790 c0 -43 30 -77 100 -114 51 -27 170 -137 170 -158 0 -7 12
-25 28 -40 15 -15 65 -64 111 -109 49 -47 104 -90 130 -102 25 -11 75 -46 110
-79 35 -32 69 -58 76 -58 24 0 120 -43 137 -62 9 -10 31 -25 50 -32 70 -30
153 -147 177 -251 14 -57 51 -112 69 -101 9 5 8 13 -3 29 -8 12 -15 31 -15 43
0 12 -7 24 -15 28 -10 3 -15 19 -15 44 0 22 -6 45 -14 51 -7 6 -30 44 -50 84
-28 57 -50 83 -102 126 -57 47 -75 55 -137 67 -54 11 -78 21 -102 44 -17 16
-36 30 -43 30 -7 0 -17 11 -22 25 -6 16 -17 25 -30 25 -12 0 -49 27 -88 65
-37 36 -79 71 -94 77 -15 7 -31 23 -37 35 -6 13 -15 23 -21 23 -10 0 -64 78
-65 95 0 5 -15 13 -32 19 -18 5 -33 14 -33 20 0 6 -22 33 -47 60 -35 36 -55
49 -75 49 -24 0 -28 4 -28 28 0 36 -24 59 -61 59 -22 0 -29 -5 -29 -20z"/>
<path d="M8064 8417 c-35 -31 -28 -69 16 -87 61 -25 120 33 86 85 -21 32 -65
33 -102 2z"/>
<path d="M6730 8236 c-41 -19 -96 -42 -122 -52 -54 -19 -58 -25 -26 -39 13 -6
24 -19 26 -30 2 -11 11 -26 20 -32 30 -24 66 -14 140 39 60 44 72 57 72 81 0
30 -16 67 -28 67 -4 0 -41 -15 -82 -34z"/>
<path d="M7685 8199 c-16 -5 -61 -11 -100 -13 -38 -3 -87 -9 -109 -15 -21 -5
-53 -7 -72 -4 -18 3 -62 0 -99 -7 -57 -11 -68 -10 -91 4 -17 12 -43 17 -82 15
-31 0 -85 2 -119 6 -48 6 -63 5 -63 -5 0 -7 8 -10 19 -7 17 4 230 -39 240 -49
15 -14 -34 -19 -220 -21 l-210 -3 -49 -33 -49 -33 59 -43 c33 -23 60 -48 60
-56 0 -18 48 -55 72 -55 21 0 129 -156 148 -216 7 -20 35 -79 62 -131 43 -83
47 -97 35 -112 -18 -21 -16 -30 11 -68 12 -17 22 -36 22 -43 0 -6 6 -18 14
-25 12 -12 16 -10 26 14 16 41 41 43 91 9 49 -33 84 -34 170 -3 91 31 171 15
269 -54 96 -68 167 -143 179 -188 6 -21 20 -53 31 -70 16 -27 26 -33 52 -33
44 1 67 15 122 76 65 73 62 90 -21 152 -38 28 -79 62 -93 77 -14 15 -53 42
-87 62 -61 34 -133 115 -113 128 5 3 11 1 14 -4 3 -5 30 -23 60 -40 30 -17 64
-40 75 -53 l21 -22 0 22 c0 26 -44 146 -71 196 -8 13 -8 21 1 26 8 5 7 11 -4
22 -8 9 -12 19 -8 23 4 4 7 11 7 15 0 5 9 15 19 23 22 16 14 37 -14 37 -11 0
-31 5 -44 12 -21 9 -29 8 -45 -6 -17 -16 -20 -16 -47 7 -34 28 -127 77 -148
77 -7 0 -24 8 -35 18 -21 16 -18 17 91 15 62 -1 123 -5 135 -9 27 -7 42 18 24
40 -9 10 -8 15 4 20 23 8 18 28 -15 66 -33 39 -37 55 -15 64 25 9 19 85 -10
120 -21 27 -22 31 -8 41 10 7 14 19 10 29 -7 18 -52 20 -102 5z"/>
<path d="M7856 8174 l-29 -16 7 -75 c5 -56 12 -80 28 -96 14 -15 22 -18 25
-10 3 7 22 17 42 23 80 21 127 104 83 148 -20 20 -80 42 -112 42 -8 -1 -28 -8
-44 -16z"/>
<path d="M3910 8160 c0 -5 6 -10 14 -10 8 0 18 5 21 10 3 6 -3 10 -14 10 -12
0 -21 -4 -21 -10z"/>
<path d="M7921 7955 c-30 -14 -33 -18 -27 -46 3 -17 6 -53 6 -80 0 -40 5 -55
31 -84 24 -27 30 -41 25 -60 -4 -14 -1 -34 6 -44 16 -26 3 -39 -22 -23 -28 17
-30 16 -30 -16 0 -16 11 -41 24 -57 21 -25 34 -62 53 -159 11 -56 89 -137 185
-192 49 -28 99 -60 111 -71 55 -50 157 -121 209 -146 76 -37 156 -110 181
-167 17 -36 21 -41 24 -24 2 12 13 24 24 27 17 5 19 14 18 99 -1 122 -7 139
-51 160 -30 14 -39 26 -49 60 -13 49 -97 159 -161 211 -24 19 -88 60 -143 92
-150 87 -177 107 -166 118 16 16 131 16 175 0 49 -17 107 -17 130 0 9 7 20 31
23 53 4 32 -1 53 -26 102 -17 34 -31 68 -31 75 0 7 -14 35 -31 60 -29 44 -34
47 -74 47 -26 0 -52 7 -66 18 -66 51 -276 80 -348 47z"/>
<path d="M6565 7800 c-3 -5 -14 -10 -24 -10 -31 0 -122 -52 -133 -76 -6 -13
-20 -26 -31 -30 -10 -3 -36 -23 -58 -43 -21 -21 -53 -42 -71 -47 -19 -5 -37
-19 -43 -32 -5 -12 -18 -25 -27 -28 -10 -3 -18 -12 -18 -20 0 -21 -46 -40 -63
-25 -16 12 -77 -3 -77 -20 0 -5 -13 -9 -29 -9 -16 0 -31 -6 -35 -15 -3 -8 -10
-15 -15 -15 -6 0 -8 7 -5 15 6 15 -14 20 -58 17 -10 -1 -18 3 -18 8 0 6 -7 10
-15 10 -11 0 -13 -7 -9 -29 5 -23 -1 -35 -33 -68 l-39 -40 22 -28 c19 -24 26
-27 58 -21 40 8 92 47 101 77 5 13 10 17 18 11 7 -5 25 -12 40 -16 20 -5 27
-11 23 -22 -4 -11 6 -21 37 -34 72 -31 115 -33 223 -10 54 12 108 23 119 25
11 1 27 5 35 7 39 13 120 24 120 16 0 -20 55 -2 67 22 18 35 16 186 -2 257 -8
31 -15 77 -15 101 0 62 -26 103 -45 72z"/>
<path d="M3238 7729 c-37 -27 -35 -35 7 -49 28 -9 39 -9 50 0 20 16 19 56 -1
64 -22 9 -26 8 -56 -15z"/>
<path d="M4658 7734 c-9 -9 -33 -18 -53 -19 -20 -1 -41 -8 -45 -16 -6 -9 -29
-13 -69 -14 -32 0 -63 -3 -67 -7 -9 -10 -9 -9 44 -37 l44 -22 34 31 c19 16 45
30 58 30 12 0 26 3 29 7 4 3 29 14 55 22 26 9 47 21 47 26 0 18 -59 17 -77 -1z"/>
<path d="M6300 7741 c0 -4 -12 -25 -26 -46 -14 -21 -22 -41 -17 -46 4 -4 18 6
30 24 26 40 38 77 24 77 -6 0 -11 -4 -11 -9z"/>
<path d="M5725 7690 c3 -5 8 -10 11 -10 2 0 4 5 4 10 0 6 -5 10 -11 10 -5 0
-7 -4 -4 -10z"/>
<path d="M5760 7655 c0 -15 -5 -16 -32 -10 -38 8 -177 13 -184 6 -3 -3 -24 -4
-47 -3 -61 3 -73 -8 -43 -41 19 -20 32 -26 53 -22 76 12 123 14 128 5 3 -5 1
-11 -5 -15 -5 -3 -10 -14 -10 -24 0 -16 -8 -18 -55 -15 -43 2 -57 0 -62 -12
-9 -25 17 -35 72 -29 83 10 138 33 188 78 44 39 60 62 46 62 -4 0 -16 9 -28
19 -20 18 -21 18 -21 1z"/>
<path d="M3535 7640 c-4 -6 -35 -24 -70 -41 -57 -27 -84 -53 -70 -67 3 -3 26
-1 50 6 59 16 96 15 119 -3 22 -17 91 -21 81 -5 -3 6 -16 10 -29 10 -52 0 -98
45 -66 65 5 3 15 15 20 26 9 16 7 19 -9 19 -11 0 -23 -5 -26 -10z"/>
<path d="M4998 7621 c19 -16 54 -34 78 -41 25 -7 47 -17 50 -22 3 -5 20 -6 37
-2 42 8 47 12 41 27 -3 8 -24 13 -57 13 -37 0 -61 6 -82 21 -17 12 -46 24 -65
28 l-35 6 33 -30z"/>
<path d="M5856 7633 c-19 -20 -36 -77 -26 -87 14 -14 50 27 50 55 0 10 0 22 1
26 1 11 -16 15 -25 6z"/>
<path d="M6900 7546 c0 -14 5 -26 10 -26 6 0 10 9 10 19 0 11 -4 23 -10 26 -6
4 -10 -5 -10 -19z"/>
<path d="M3700 7550 c0 -5 -8 -10 -17 -10 -39 0 6 -18 60 -24 61 -7 72 2 35
28 -25 18 -78 22 -78 6z"/>
<path d="M5861 7531 c-7 -5 -9 -11 -5 -14 5 -3 15 1 22 9 14 16 5 18 -17 5z"/>
<path d="M6676 7458 c-4 -24 -9 -63 -12 -88 -4 -25 -11 -48 -18 -52 -6 -4 -33
-8 -59 -8 -57 0 -137 -19 -137 -31 0 -11 12 -33 54 -102 25 -42 27 -49 13 -60
-14 -11 -13 -16 5 -55 22 -47 58 -86 127 -141 23 -18 47 -44 53 -57 6 -13 16
-24 23 -26 17 -4 95 -99 95 -115 0 -21 -14 -15 -51 23 -33 35 -97 74 -120 74
-6 0 -27 14 -46 30 -18 17 -45 30 -59 30 -31 0 -28 -18 7 -40 83 -51 99 -63
99 -74 0 -16 42 -56 58 -56 7 0 12 -4 12 -8 0 -5 23 -23 51 -42 28 -18 53 -40
57 -49 3 -9 25 -38 49 -65 48 -54 57 -78 17 -47 -31 25 -56 28 -48 6 4 -8 2
-15 -2 -15 -23 0 -140 67 -169 97 -18 18 -37 33 -44 33 -6 0 -11 4 -11 10 0 5
-16 20 -35 32 -19 13 -35 30 -35 39 0 15 -87 79 -108 79 -6 0 -28 16 -49 35
-21 19 -56 44 -78 56 -22 11 -51 28 -65 37 l-25 17 23 -32 c37 -52 97 -113
112 -113 13 0 100 -88 100 -102 0 -5 8 -8 19 -8 10 0 26 -10 34 -22 16 -24 77
-89 118 -124 13 -12 42 -43 64 -68 22 -26 65 -72 95 -104 31 -31 63 -69 72
-84 10 -14 27 -29 38 -33 21 -7 37 -46 25 -64 -10 -17 -96 33 -130 75 -16 20
-36 42 -43 48 -7 6 -30 27 -51 46 -78 72 -104 85 -114 58 -3 -9 -19 -2 -51 20
-34 25 -53 32 -71 28 -20 -5 -35 6 -94 66 -39 40 -71 66 -71 57 0 -36 79 -162
143 -228 37 -38 67 -74 67 -80 0 -6 83 -94 185 -196 102 -102 185 -193 185
-202 0 -10 11 -49 24 -88 14 -38 23 -71 21 -73 -2 -2 -21 4 -80 29 -11 4 -38
13 -61 19 -23 5 -62 28 -87 50 -25 22 -49 40 -55 40 -5 0 -20 9 -33 20 -55 46
-114 99 -176 158 -36 34 -69 62 -74 62 -5 0 -15 10 -24 23 -16 25 -95 72 -95
56 0 -15 326 -329 342 -329 18 0 217 -208 249 -260 18 -30 37 -56 41 -58 4 -2
10 -20 14 -40 4 -20 14 -43 23 -50 14 -12 13 -13 -6 -9 -28 6 -31 -16 -5 -35
16 -12 42 -51 42 -63 0 -3 -6 -5 -14 -5 -20 0 -30 -18 -18 -33 13 -17 23 -87
11 -87 -12 0 -12 -47 0 -54 12 -8 20 -66 9 -66 -4 0 -8 -9 -8 -20 0 -11 -5
-20 -11 -20 -7 0 -9 -12 -5 -34 4 -19 2 -37 -3 -41 -6 -3 -8 -31 -4 -68 4 -51
2 -69 -15 -101 -17 -32 -20 -50 -15 -102 3 -37 2 -69 -4 -76 -29 -37 -18 -103
20 -129 20 -14 -2 -39 -34 -39 -20 0 -29 -4 -26 -12 2 -7 11 -12 20 -10 11 2
14 -3 10 -17 -2 -10 0 -22 6 -25 6 -4 11 -14 11 -23 0 -14 -2 -14 -19 1 -11
10 -21 13 -25 7 -4 -5 2 -16 11 -23 29 -21 22 -103 -8 -103 -9 0 -10 -11 -2
-32 2 -6 16 -16 31 -22 30 -13 57 -60 43 -74 -6 -6 -19 1 -34 19 -30 35 -46
25 -29 -18 8 -21 8 -36 2 -42 -6 -6 -10 -26 -10 -46 0 -23 -7 -41 -20 -53 -11
-9 -20 -26 -20 -37 0 -11 -6 -20 -12 -20 -33 -1 -41 -16 -27 -55 11 -30 11
-39 2 -42 -16 -6 -17 -35 -1 -51 9 -9 7 -13 -5 -18 -20 -7 -23 -54 -4 -73 10
-10 8 -16 -10 -31 -32 -26 -28 -48 12 -67 42 -20 49 -15 50 38 1 30 7 45 27
62 33 28 48 58 42 83 -3 11 3 29 15 43 11 12 30 47 42 76 15 35 26 52 35 48 9
-3 14 2 14 12 0 17 1 17 18 2 9 -8 48 -30 87 -47 l70 -31 26 33 c16 18 24 37
19 43 -4 5 -4 21 1 34 7 18 14 22 34 17 27 -7 33 5 11 23 -8 7 -12 21 -8 33
l5 22 9 -23 c4 -13 17 -25 29 -28 16 -4 19 -11 15 -29 -3 -12 -2 -25 3 -28 5
-3 8 -20 7 -38 -2 -29 -5 -33 -29 -31 -32 2 -33 -6 -11 -70 20 -58 14 -76 -20
-70 -25 5 -26 3 -26 -36 0 -39 -11 -53 -25 -31 -7 12 -45 13 -45 2 0 -5 13
-21 30 -35 45 -41 56 -118 17 -125 -36 -7 -96 69 -75 95 13 16 13 65 -1 90
-14 28 -14 33 3 33 8 0 16 7 20 15 3 8 15 15 26 15 39 0 19 27 -42 56 -35 16
-74 39 -88 52 -30 27 -40 28 -40 3 0 -10 -7 -22 -15 -25 -12 -4 -14 -14 -10
-40 4 -20 2 -36 -4 -40 -6 -4 -11 -20 -11 -36 0 -23 -5 -31 -26 -36 -27 -7
-47 -44 -38 -69 4 -11 0 -15 -16 -15 -16 0 -20 -5 -16 -17 7 -22 -3 -37 -28
-47 -15 -5 -17 -9 -8 -18 7 -7 12 -17 12 -24 0 -13 -67 6 -79 23 -10 16 -130
72 -125 58 10 -25 -13 -23 -77 7 -35 17 -84 33 -109 36 -36 4 -52 13 -90 52
-52 53 -63 59 -144 70 -36 6 -73 19 -96 35 -21 15 -68 39 -104 53 -59 25 -182
113 -313 225 -37 31 -51 37 -91 37 -47 0 -105 26 -128 58 -9 12 -12 6 -17 -29
-4 -24 -15 -100 -26 -169 -34 -218 -35 -250 -12 -295 22 -42 28 -115 10 -115
-6 0 -13 9 -16 20 -6 23 -23 27 -23 5 0 -8 -4 -15 -10 -15 -5 0 -10 5 -10 10
0 18 -18 10 -35 -16 -9 -15 -18 -50 -19 -81 -3 -55 6 -75 21 -50 4 8 25 17 45
21 l37 7 -15 -30 c-8 -16 -21 -35 -29 -41 -14 -11 -14 -15 0 -30 14 -16 13
-21 -9 -61 -14 -24 -42 -55 -63 -69 -28 -19 -43 -41 -62 -89 -29 -73 -29 -73
62 -172 41 -44 56 -67 51 -78 -4 -9 -9 -38 -12 -66 -3 -47 -1 -53 38 -95 23
-25 50 -64 60 -87 11 -23 38 -63 61 -88 33 -36 40 -48 30 -58 -10 -9 -17 -7
-33 13 -11 14 -33 32 -48 40 -15 8 -56 35 -89 60 -34 25 -76 55 -93 68 -17 12
-41 22 -54 22 -26 0 -43 -27 -143 -224 -61 -119 -73 -166 -51 -206 12 -23 -21
-86 -49 -95 -16 -5 -38 -71 -32 -98 1 -4 -4 -18 -11 -30 -7 -12 -16 -80 -20
-152 -4 -71 -10 -147 -14 -168 -9 -54 24 -222 48 -244 11 -10 22 -13 27 -7 16
18 49 131 57 194 14 114 11 146 -15 174 -13 13 -20 29 -17 35 4 5 1 25 -6 43
-7 18 -12 59 -10 91 3 49 6 57 22 57 12 0 22 -9 26 -24 6 -23 82 -95 139 -131
17 -11 46 -32 66 -47 32 -26 101 -56 220 -95 l45 -16 1 -51 c0 -30 -8 -71 -20
-101 -11 -27 -22 -70 -23 -95 -2 -25 -6 -63 -9 -85 -7 -47 23 -105 53 -105 37
0 87 80 97 155 3 28 10 61 15 75 10 33 28 99 35 133 6 29 23 33 99 20 27 -4
40 -12 44 -25 5 -20 72 -57 122 -68 18 -4 25 -12 27 -30 0 -14 1 -33 2 -42 1
-23 39 -22 106 1 40 14 54 25 71 57 26 49 50 53 46 6 -2 -21 4 -41 17 -58 22
-28 28 -83 11 -100 -6 -6 -12 -56 -13 -112 -2 -56 -6 -104 -10 -108 -4 -4 -24
5 -45 20 -21 14 -42 26 -47 26 -5 0 -20 11 -35 25 -17 17 -39 25 -70 27 l-45
3 -5 -57 c-3 -31 -8 -60 -12 -63 -4 -4 2 -25 12 -46 25 -48 25 -59 -1 -59 -28
0 -18 -29 27 -74 25 -25 34 -41 30 -54 -4 -12 3 -29 20 -48 14 -16 37 -53 51
-81 13 -29 28 -55 33 -58 5 -3 14 -25 21 -48 6 -23 17 -49 24 -57 7 -8 21 -51
30 -95 9 -45 24 -88 34 -98 18 -18 19 -17 37 15 11 18 31 55 44 81 22 41 28
47 49 42 23 -6 61 17 61 37 0 5 10 22 21 38 15 19 20 36 16 52 -8 28 11 148
27 167 15 19 46 121 46 154 0 17 -10 37 -26 52 -21 20 -26 34 -30 99 -3 44 -1
76 4 76 9 0 17 57 28 195 2 39 7 77 11 85 3 8 7 26 8 40 1 14 8 59 16 100 10
57 20 80 39 97 50 45 59 55 54 68 -8 21 8 24 51 9 22 -8 56 -12 76 -9 28 4 40
0 54 -15 10 -11 22 -17 27 -14 5 3 32 3 59 -1 37 -5 49 -11 45 -21 -3 -7 1
-26 9 -41 20 -37 19 -40 -9 -47 -35 -9 -73 12 -85 45 -12 33 -34 37 -72 11
-38 -25 -99 -93 -99 -109 0 -16 -30 -74 -43 -84 -5 -3 -19 -4 -32 -1 -19 3
-27 -3 -43 -35 -14 -26 -17 -44 -11 -55 6 -11 4 -20 -6 -28 -12 -10 -14 -26
-10 -74 4 -34 9 -68 12 -76 3 -8 5 -30 4 -48 -4 -48 17 -99 48 -122 27 -19 29
-19 45 -1 11 12 16 37 16 84 0 36 5 69 10 72 13 8 41 -24 78 -88 15 -26 37
-50 48 -53 23 -6 37 -29 54 -93 6 -23 15 -41 20 -41 18 0 50 -44 60 -82 6 -20
25 -56 43 -80 18 -24 38 -54 45 -68 7 -14 20 -37 30 -51 9 -15 40 -64 69 -110
75 -120 145 -219 167 -234 10 -8 25 -11 32 -8 17 6 18 -11 2 -37 -10 -15 -9
-22 5 -38 9 -10 17 -23 17 -29 0 -21 37 -20 65 3 24 19 30 20 42 9 19 -20 16
-45 -6 -45 -29 0 -51 -11 -51 -25 0 -7 15 -36 33 -63 17 -28 49 -78 69 -111
43 -68 74 -92 85 -65 3 9 1 24 -6 33 -18 25 -61 115 -61 129 0 24 30 11 35
-15 12 -56 37 -75 43 -32 2 12 12 35 22 52 14 23 16 34 8 44 -13 16 -45 17
-50 1 -2 -6 -10 -8 -16 -4 -15 9 -16 46 -2 46 6 0 10 17 10 38 0 25 7 43 20
55 32 27 42 21 34 -19 -7 -36 -6 -37 19 -30 22 5 30 0 54 -31 15 -21 49 -61
75 -90 26 -28 48 -56 48 -60 0 -15 65 -44 83 -37 9 3 20 18 23 33 3 14 11 37
17 50 10 19 9 25 -1 29 -10 3 -10 7 -1 18 16 20 30 18 69 -11 41 -30 79 -32
107 -5 12 10 38 53 58 95 20 41 41 77 46 81 5 3 9 13 9 23 0 9 5 22 12 29 23
23 42 90 54 187 6 47 5 51 -26 77 -25 20 -31 30 -22 40 5 7 12 27 14 43 2 19
9 30 19 30 23 0 77 58 83 89 4 14 8 37 11 50 3 13 13 26 24 29 27 7 74 84 67
111 -8 28 -183 206 -204 206 -21 0 -57 64 -62 107 -4 35 -10 49 -23 51 -12 3
-19 -5 -23 -27 -4 -20 -12 -31 -24 -31 -33 0 -51 35 -59 114 -7 81 -12 92 -36
83 -10 -4 -15 -20 -15 -47 0 -22 -4 -40 -10 -40 -5 0 -10 15 -10 33 0 19 -6
54 -12 78 -14 48 -12 109 3 109 5 0 9 -9 9 -20 0 -12 7 -35 16 -52 15 -30 16
-30 30 -10 12 18 12 26 0 62 -14 40 -14 41 18 73 17 18 45 44 61 58 91 80 131
189 122 328 -6 79 -5 86 18 113 30 35 30 40 8 108 -13 41 -14 56 -5 71 15 23
16 59 2 59 -19 0 -10 19 10 22 18 3 19 5 6 30 -9 17 -10 30 -4 36 7 7 6 22 -3
45 -17 47 -8 64 40 72 22 4 45 13 52 21 6 8 17 14 23 14 6 0 28 16 48 35 39
38 41 52 17 129 -5 16 -9 53 -9 83 0 47 -4 59 -29 84 -27 27 -35 29 -98 28
-94 -2 -140 -16 -147 -45 -4 -13 -11 -24 -17 -24 -6 0 -39 20 -73 44 -34 25
-71 44 -82 43 -15 -2 -20 5 -22 35 -4 43 -49 98 -81 98 -29 0 -26 19 9 71 17
24 37 67 45 94 22 70 32 290 15 339 -9 28 -9 41 -1 49 6 6 11 23 11 38 0 15 5
31 10 34 6 4 7 23 4 47 -5 27 -3 42 6 48 26 16 52 226 39 316 -8 57 2 294 17
416 5 41 2 55 -26 103 -22 38 -48 67 -81 88 -30 20 -50 41 -53 57 -3 14 -7 99
-8 190 l-3 165 57 120 c69 147 104 246 95 269 -8 20 -27 12 -27 -10 0 -9 -19
-48 -42 -87 -24 -39 -52 -94 -63 -121 -11 -27 -25 -51 -31 -53 -16 -5 -36 45
-41 109 -5 51 -2 66 27 125 18 38 48 91 66 118 53 82 76 133 82 182 4 39 3 45
-13 42 -10 -3 -24 -21 -32 -44 -13 -38 -49 -85 -65 -85 -12 0 -9 57 7 130 8
36 14 93 15 128 0 61 -2 65 -40 103 -22 22 -40 44 -40 50 0 5 -14 40 -31 77
-33 70 -73 122 -96 122 -8 0 -18 12 -24 28 -5 15 -26 38 -47 52 -116 76 -141
88 -221 99 -101 13 -199 56 -233 102 -41 55 -138 255 -180 374 -41 115 -82
195 -99 195 -12 0 -71 54 -134 124 -35 38 -52 33 -59 -16z"/>
<path d="M5400 7447 c0 -14 35 -39 44 -30 7 7 -23 43 -36 43 -4 0 -8 -6 -8
-13z"/>
<path d="M6474 6895 c8 -8 20 -15 26 -15 7 0 6 6 -4 15 -8 8 -20 15 -26 15 -7
0 -6 -6 4 -15z"/>
<path d="M8107 6796 c-23 -21 -31 -23 -59 -16 -20 6 -36 6 -43 0 -7 -6 -19 -8
-28 -4 -8 3 -18 1 -22 -5 -10 -17 -33 -13 -66 12 l-31 22 -19 -24 c-23 -29
-24 -64 -2 -86 13 -14 14 -21 5 -34 -7 -9 -23 -36 -36 -61 -13 -25 -33 -54
-45 -64 -12 -11 -21 -28 -21 -38 0 -21 77 -148 90 -148 4 0 19 19 33 43 14 23
34 51 46 61 12 11 21 25 21 32 0 7 26 33 58 57 31 25 65 54 76 65 10 12 32 24
50 28 33 8 87 7 95 -2 3 -2 -13 -23 -36 -47 -22 -23 -50 -59 -62 -79 -25 -42
-64 -73 -103 -83 -18 -5 -30 -17 -38 -38 -6 -17 -24 -44 -40 -59 -29 -26 -42
-78 -19 -78 6 0 33 21 60 47 66 62 100 78 142 67 63 -18 42 -77 -65 -184 -60
-60 -85 -117 -67 -151 5 -11 14 -19 19 -19 6 0 10 -7 10 -15 0 -29 30 -27 71
5 l41 33 20 -21 c21 -20 21 -22 5 -64 -10 -24 -17 -58 -17 -76 0 -25 -4 -32
-20 -32 -11 0 -30 11 -42 25 -39 46 -68 29 -68 -40 0 -26 8 -39 44 -68 23 -20
62 -67 85 -106 40 -65 44 -78 54 -178 6 -59 10 -171 9 -248 -1 -77 3 -174 8
-215 7 -51 7 -174 -1 -385 -6 -170 -12 -351 -13 -401 -1 -81 -4 -94 -27 -125
-36 -46 -56 -89 -78 -157 -10 -33 -37 -83 -64 -118 l-47 -60 -6 -121 c-7 -119
-7 -121 20 -155 18 -24 26 -47 26 -75 0 -57 -20 -151 -36 -164 -10 -8 -8 -17
12 -46 13 -20 34 -43 47 -52 12 -8 27 -22 34 -31 10 -13 16 -11 41 17 17 18
36 51 44 75 14 41 17 43 64 51 27 5 57 16 68 25 28 25 116 214 127 275 6 28
14 75 18 102 4 28 13 63 19 78 19 45 15 197 -4 219 -16 16 -16 21 0 61 19 50
20 71 5 95 -9 14 -8 26 5 50 9 18 20 32 25 32 16 0 34 89 27 135 -5 42 -4 46
19 55 33 12 33 47 1 60 -30 11 -38 44 -54 226 -4 51 -13 98 -19 105 -6 8 -16
106 -23 234 -12 236 -22 302 -51 351 -11 17 -19 47 -19 65 -1 19 -8 52 -16 74
-30 81 -54 161 -54 182 0 12 12 30 28 41 15 11 38 38 52 61 14 22 33 43 42 46
9 3 20 15 23 26 8 23 38 41 58 34 18 -7 87 76 87 104 0 25 53 61 91 61 16 0
33 10 47 30 13 17 31 30 40 30 10 0 23 5 30 12 9 9 15 9 24 0 7 -7 18 -12 25
-12 13 0 82 69 83 83 0 4 14 26 30 49 40 55 39 83 -2 104 -18 9 -34 18 -36 19
-6 6 20 50 48 80 60 66 43 109 -47 112 -92 2 -155 11 -167 23 -6 6 -11 29 -11
53 -1 43 -31 107 -51 107 -6 0 -32 9 -58 21 -56 24 -141 27 -238 9 -64 -13
-68 -12 -117 13 -67 35 -128 36 -164 3z"/>
<path d="M6590 6687 c0 -15 49 -42 58 -32 8 7 -29 45 -45 45 -7 0 -13 -6 -13
-13z"/>
<path d="M1507 4662 c-21 -23 -22 -75 -2 -92 24 -20 40 3 36 53 -3 52 -13 63
-34 39z"/>
<path d="M867 3874 c-4 -4 -3 -12 1 -18 4 -6 7 -29 7 -51 0 -54 12 -58 38 -12
l21 38 -28 24 c-33 28 -31 27 -39 19z"/>
<path d="M820 3741 c0 -30 21 -71 37 -71 17 0 17 15 -2 30 -8 7 -15 21 -15 31
0 10 -4 21 -10 24 -5 3 -10 -3 -10 -14z"/>
<path d="M5214 2999 c-8 -14 11 -33 25 -25 6 4 11 14 11 22 0 16 -26 19 -36 3z"/>
<path d="M2352 2794 c4 -21 22 -23 26 -1 2 10 -3 17 -13 17 -10 0 -15 -6 -13
-16z"/>
<path d="M8395 2750 c-27 -11 -58 -46 -84 -95 -27 -51 -26 -59 4 -100 51 -66
141 -83 221 -43 35 17 47 30 61 67 9 25 21 52 26 58 12 17 2 43 -17 43 -8 0
-21 6 -28 13 -13 13 -141 68 -156 66 -4 0 -16 -4 -27 -9z"/>
<path d="M8393 2188 c-25 -29 -35 -68 -21 -85 6 -7 26 -13 45 -13 60 0 95 67
55 103 -26 23 -55 21 -79 -5z"/>
<path d="M8146 1694 c-3 -9 -6 -33 -6 -54 0 -21 -4 -42 -10 -45 -5 -3 -10 -31
-10 -60 0 -44 4 -56 20 -65 19 -10 20 -8 20 83 0 54 5 98 11 104 12 12 3 53
-11 53 -4 0 -11 -7 -14 -16z"/>
<path d="M5691 774 c-26 -33 -27 -56 -3 -77 38 -35 122 -6 122 41 0 61 -81 85
-119 36z"/>
</g>
</svg>
