<svg id="svg" xmlns="http://www.w3.org/2000/svg" xmlns:xlink="http://www.w3.org/1999/xlink" width="400" height="400" viewBox="0, 0, 400,400"><g id="svgg"><path id="path0" d="M220.636 6.899 C 220.161 7.170,219.517 7.574,219.205 7.796 C 218.452 8.333,218.375 8.320,217.064 7.450 C 214.656 5.852,213.089 6.629,205.700 13.083 C 202.135 16.197,201.018 17.116,199.754 17.973 C 199.233 18.326,198.269 19.322,197.611 20.186 C 196.739 21.332,196.166 21.878,195.496 22.202 C 194.991 22.446,194.380 22.914,194.139 23.240 C 193.193 24.519,188.915 26.696,184.622 28.084 C 183.369 28.489,182.019 28.985,181.622 29.186 C 181.225 29.387,179.145 30.250,177.000 31.104 C 168.997 34.290,166.197 35.987,163.899 39.044 C 161.245 42.575,162.725 42.312,165.664 38.731 C 166.084 38.220,166.663 37.742,166.951 37.669 C 167.239 37.597,168.329 37.139,169.373 36.651 C 172.348 35.260,175.600 34.813,175.600 35.795 C 175.600 36.623,173.813 37.195,171.213 37.198 C 168.245 37.203,164.769 41.200,164.692 44.698 C 164.672 45.579,164.592 46.885,164.513 47.600 L 164.369 48.900 166.135 47.049 C 167.831 45.270,168.832 44.600,169.794 44.600 C 170.586 44.600,169.290 46.373,167.357 47.933 C 165.988 49.038,165.956 49.048,161.323 49.694 C 156.853 50.318,154.721 51.010,154.553 51.892 C 154.442 52.471,154.626 52.511,155.900 52.187 C 156.609 52.007,166.800 51.565,166.965 51.708 C 167.228 51.934,163.573 53.663,160.232 54.893 C 153.745 57.281,152.087 58.306,151.969 59.999 C 151.931 60.550,151.918 61.000,151.940 61.000 C 151.962 61.000,152.473 60.872,153.075 60.715 C 154.608 60.316,155.607 60.642,155.864 61.624 C 156.008 62.175,155.652 62.281,151.574 62.897 C 142.138 64.323,141.093 65.128,134.434 76.105 C 131.048 81.686,131.368 81.268,130.716 80.971 C 130.201 80.736,130.093 80.821,126.943 83.925 C 124.049 86.775,123.286 87.399,119.853 89.710 C 115.561 92.599,115.744 92.409,116.700 92.973 C 117.697 93.562,117.743 93.521,113.861 95.500 C 107.956 98.509,105.082 100.683,102.626 104.000 C 102.015 104.825,100.515 106.595,99.293 107.934 C 95.820 111.738,95.172 113.490,95.581 117.973 C 95.702 119.291,95.800 120.873,95.800 121.490 C 95.800 122.203,96.232 124.300,96.986 127.255 C 97.639 129.810,98.238 132.483,98.317 133.196 C 98.475 134.605,99.066 136.010,104.796 148.600 C 109.052 157.950,109.686 158.870,119.450 169.869 C 126.218 177.494,127.957 179.657,129.283 182.100 C 129.701 182.870,130.877 184.760,131.896 186.300 C 135.101 191.144,135.620 192.468,136.007 196.800 C 136.676 204.294,140.166 212.074,146.256 219.647 C 149.007 223.068,156.594 228.796,170.900 238.254 C 174.612 240.708,177.742 242.935,178.700 243.802 C 190.345 254.344,198.181 260.838,203.030 263.963 C 208.470 267.469,208.231 267.254,208.514 268.924 C 208.905 271.231,210.039 272.980,211.447 273.449 C 211.719 273.540,211.160 275.908,210.613 276.980 C 205.640 286.731,204.356 288.721,198.310 296.033 C 193.944 301.314,189.053 306.418,186.843 308.000 C 185.358 309.064,184.444 310.348,182.257 314.446 C 180.367 317.988,178.799 320.642,177.950 321.739 C 176.062 324.178,173.343 327.867,171.271 330.800 C 169.989 332.615,168.353 334.820,167.637 335.700 C 166.920 336.580,166.321 337.320,166.305 337.345 C 166.238 337.451,161.678 338.048,156.000 338.695 C 147.134 339.704,148.173 339.452,147.455 340.773 C 146.250 342.990,145.416 346.042,144.787 350.535 C 144.494 352.626,144.761 354.751,145.731 358.068 C 147.167 362.977,147.407 363.944,147.726 366.100 C 148.118 368.750,148.023 371.760,147.376 377.200 C 147.117 379.375,146.929 382.178,146.918 384.000 L 146.900 387.100 147.952 391.228 C 149.849 398.675,151.042 399.565,154.496 396.111 C 155.551 395.055,157.141 393.858,159.849 392.080 C 163.227 389.861,164.044 389.213,166.500 386.807 C 168.040 385.298,169.865 383.637,170.556 383.116 C 174.624 380.045,175.646 374.185,172.185 373.770 C 168.509 373.329,167.581 373.483,162.948 375.306 C 162.670 375.415,162.513 375.254,162.195 374.535 L 161.793 373.626 163.098 369.263 C 164.778 363.646,164.886 363.077,165.667 355.740 L 166.323 349.580 167.771 348.140 L 169.219 346.700 169.839 347.400 C 173.382 351.401,175.446 353.573,178.039 356.026 C 182.148 359.915,185.812 363.200,186.039 363.200 C 186.140 363.200,187.714 361.670,189.535 359.800 C 193.327 355.906,195.200 354.209,195.200 354.669 C 195.200 354.838,194.697 355.520,194.082 356.184 C 192.506 357.887,190.007 363.521,188.912 367.841 L 188.471 369.581 184.477 373.651 C 176.270 382.015,174.380 385.529,174.427 392.343 C 174.446 395.178,174.482 395.297,175.740 396.654 C 176.226 397.179,176.717 397.876,176.831 398.204 L 177.039 398.800 179.570 398.800 L 182.100 398.800 185.200 396.880 C 186.905 395.824,189.408 394.272,190.761 393.430 C 195.990 390.180,200.628 386.325,201.482 384.520 C 201.758 383.937,202.613 382.767,203.382 381.920 C 204.151 381.073,205.002 379.912,205.272 379.340 C 205.927 377.956,206.660 377.063,208.266 375.692 C 208.999 375.066,209.871 374.181,210.204 373.727 C 210.551 373.251,211.329 372.603,212.034 372.200 C 213.247 371.507,214.202 370.536,213.934 370.268 C 213.858 370.191,212.062 370.640,209.943 371.264 C 207.824 371.889,205.894 372.400,205.655 372.400 C 204.538 372.400,199.492 371.549,199.357 371.338 C 199.057 370.865,199.211 370.279,199.763 369.795 C 200.323 369.303,200.327 369.281,200.578 365.500 L 200.831 361.700 201.652 359.943 C 202.151 358.875,202.568 358.222,202.715 358.278 C 202.848 358.329,204.162 359.268,205.634 360.365 C 207.759 361.949,208.702 362.512,210.206 363.097 L 212.100 363.834 216.200 363.772 L 220.300 363.709 222.265 362.222 C 224.685 360.390,225.007 359.973,226.018 357.373 C 227.048 354.722,228.186 352.597,231.037 348.000 C 233.872 343.430,234.755 341.722,240.543 329.605 C 242.624 325.250,245.728 316.264,247.694 308.900 C 248.901 304.380,250.530 298.626,251.291 296.192 C 251.551 295.363,252.409 293.293,253.200 291.592 C 255.172 287.347,255.739 285.571,255.998 282.826 C 256.115 281.582,256.534 278.929,256.929 276.932 C 257.824 272.411,258.039 268.495,257.522 266.170 C 257.166 264.568,257.098 264.445,255.230 261.985 C 254.039 260.415,253.062 258.575,250.408 252.900 C 249.398 250.741,248.486 249.119,244.523 242.435 C 240.149 235.059,235.199 228.215,225.185 215.700 C 213.105 200.601,212.551 199.825,211.594 196.639 C 211.147 195.152,211.109 194.586,211.199 190.700 C 211.261 188.025,210.952 186.549,209.553 182.849 L 208.551 180.197 206.386 178.270 C 202.590 174.890,199.673 171.000,199.756 169.428 C 199.920 166.332,199.868 165.478,199.461 164.574 L 199.044 163.648 201.403 159.253 C 202.700 156.836,204.285 154.013,204.926 152.979 C 206.657 150.185,209.377 143.244,210.129 139.700 C 210.808 136.505,210.691 125.290,209.889 116.600 C 209.731 114.895,209.509 111.790,209.395 109.700 C 209.276 107.507,208.859 103.574,208.411 100.400 C 207.481 93.822,207.333 91.851,207.597 89.600 C 208.216 84.328,208.088 82.104,206.794 75.607 C 206.368 73.466,206.054 71.680,206.096 71.637 C 206.468 71.265,208.603 72.480,210.600 74.200 C 213.852 77.001,214.760 77.117,217.866 75.130 L 218.995 74.408 219.122 74.916 C 219.498 76.414,218.665 78.327,216.356 81.266 C 214.141 84.086,213.732 84.911,213.634 86.754 L 213.556 88.208 214.452 89.104 C 215.113 89.765,215.504 90.000,215.944 90.000 L 216.541 90.000 216.271 88.956 C 215.672 86.649,216.215 84.294,217.735 82.603 C 218.856 81.356,218.917 81.421,219.045 84.000 C 219.148 86.058,219.591 87.290,220.447 87.892 C 221.054 88.319,221.159 87.563,221.182 82.571 L 221.200 78.843 222.421 76.271 C 224.048 72.844,224.379 71.859,224.263 70.780 C 224.119 69.439,224.482 69.072,225.659 69.369 C 227.596 69.857,227.833 69.735,228.311 68.000 C 228.486 67.367,228.777 67.000,229.105 67.000 C 229.267 67.000,228.935 67.943,228.209 69.550 C 225.520 75.498,224.318 82.156,226.052 81.491 C 226.211 81.430,226.455 80.867,226.594 80.240 C 227.010 78.363,228.528 74.001,229.824 70.961 C 231.574 66.852,231.680 66.671,232.489 66.404 C 233.380 66.110,233.995 65.370,234.941 63.456 C 236.135 61.041,237.592 59.739,237.336 61.316 C 237.139 62.533,236.460 63.661,234.871 65.414 C 232.520 68.009,232.112 68.736,231.403 71.600 C 229.843 77.899,228.009 81.167,225.241 82.579 C 224.105 83.159,223.600 83.690,223.600 84.306 C 223.600 84.805,223.636 84.793,226.150 83.492 C 228.937 82.050,229.652 81.430,232.350 78.118 C 233.148 77.139,234.153 76.036,234.585 75.667 L 235.369 74.995 235.163 75.748 C 235.050 76.161,234.463 77.580,233.859 78.900 C 233.256 80.220,232.595 81.773,232.392 82.350 L 232.022 83.400 232.761 83.398 C 233.747 83.395,237.600 76.895,237.600 75.235 C 237.600 74.685,238.325 75.552,239.131 77.066 C 240.061 78.814,240.101 78.682,239.817 74.763 L 239.610 71.900 240.178 71.400 C 240.491 71.125,241.210 70.511,241.776 70.036 C 243.023 68.990,243.452 68.191,243.879 66.116 C 244.333 63.909,245.135 61.666,246.961 57.488 C 248.206 54.642,248.559 53.619,248.656 52.578 C 248.725 51.846,249.147 50.206,249.608 48.881 C 250.979 44.944,251.204 44.181,251.393 42.849 C 251.603 41.364,251.706 41.215,253.227 40.182 C 255.885 38.377,255.728 34.242,252.903 31.642 C 251.344 30.207,251.244 30.010,250.785 27.466 C 250.233 24.407,249.887 23.827,248.424 23.505 C 247.826 23.374,247.773 23.398,247.885 23.752 C 248.061 24.307,248.592 26.849,248.597 27.157 C 248.613 28.383,247.169 26.095,246.801 24.312 C 246.476 22.735,246.386 22.614,244.329 20.967 C 243.207 20.069,242.456 19.304,242.279 18.880 C 242.125 18.513,241.552 17.526,241.006 16.689 C 240.459 15.852,239.952 14.837,239.879 14.433 C 239.590 12.832,238.861 12.048,237.139 11.485 C 235.415 10.921,234.585 10.414,232.948 8.923 C 228.962 5.293,226.736 5.458,229.745 9.161 C 230.610 10.226,230.600 10.235,228.944 9.888 C 227.351 9.554,226.259 9.032,225.241 8.117 C 223.216 6.296,222.173 6.020,220.636 6.899 M203.545 77.488 C 205.075 79.242,205.316 79.820,205.219 81.500 C 205.098 83.586,205.109 84.582,205.292 88.100 C 205.433 90.817,205.408 91.470,205.130 92.426 C 204.835 93.441,204.023 94.795,204.007 94.300 C 203.940 92.296,202.737 87.048,202.040 85.714 L 201.510 84.700 201.345 87.500 C 200.953 94.158,201.128 95.103,203.865 101.069 C 204.361 102.152,204.827 103.471,204.900 104.001 C 205.163 105.909,203.412 112.325,201.218 117.500 C 200.008 120.353,200.026 120.001,200.899 123.722 C 201.738 127.303,202.015 130.061,201.949 134.200 C 201.904 137.078,201.932 137.360,202.347 138.136 C 202.988 139.336,203.130 139.328,203.276 138.084 C 203.348 137.476,203.952 135.476,204.619 133.639 C 206.268 129.102,206.676 126.090,206.690 118.350 C 206.707 109.417,207.281 112.032,207.807 123.435 C 208.377 135.781,206.574 144.663,202.107 151.516 C 201.418 152.573,200.787 153.853,200.487 154.805 C 199.928 156.573,198.678 158.583,197.736 159.229 C 196.514 160.066,195.964 160.711,195.162 162.252 C 193.851 164.768,193.785 164.800,189.935 164.800 C 186.819 164.800,181.458 164.329,181.152 164.029 C 180.924 163.806,183.310 159.824,186.795 154.611 C 191.467 147.622,193.005 144.688,193.991 140.883 C 194.221 139.993,194.677 138.571,195.004 137.721 C 195.984 135.177,196.315 133.081,195.992 131.455 C 195.845 130.710,195.733 129.290,195.744 128.300 C 195.755 127.310,195.780 125.375,195.799 124.000 C 195.834 121.436,195.766 120.904,194.397 113.100 C 193.855 110.004,193.772 109.087,193.808 106.550 C 193.878 101.583,193.868 100.943,193.704 99.654 C 193.585 98.723,193.626 98.116,193.866 97.254 C 194.042 96.619,194.420 94.985,194.707 93.622 C 195.433 90.160,195.834 89.202,197.150 87.781 C 198.840 85.955,201.185 79.933,201.517 76.564 L 201.658 75.136 202.074 75.707 C 202.303 76.021,202.965 76.822,203.545 77.488 M137.122 85.250 L 143.582 88.700 146.393 94.840 C 147.940 98.216,149.254 101.109,149.315 101.267 C 149.656 102.156,132.739 113.005,132.064 112.331 C 132.020 112.286,131.583 110.146,131.093 107.575 C 130.604 105.004,130.108 102.438,129.992 101.874 L 129.782 100.849 123.595 96.674 C 120.193 94.378,117.407 92.455,117.405 92.400 C 117.403 92.345,118.812 91.355,120.536 90.200 C 123.029 88.531,124.352 87.455,126.986 84.958 C 128.809 83.229,130.381 81.812,130.481 81.808 C 130.580 81.803,133.569 83.353,137.122 85.250 M134.731 120.200 C 134.673 123.665,134.535 126.950,134.425 127.500 C 134.308 128.079,134.217 132.544,134.208 138.100 L 134.192 147.700 133.371 146.400 C 132.209 144.561,131.447 143.812,130.599 143.677 C 129.528 143.505,128.467 141.710,125.811 135.575 C 125.353 134.516,124.579 133.031,124.092 132.275 C 121.505 128.261,121.155 124.169,122.821 117.400 C 123.517 114.569,124.700 113.728,128.852 113.112 C 131.420 112.730,131.400 112.730,131.400 113.100 C 131.400 113.492,131.721 113.472,132.700 113.020 L 133.500 112.651 134.168 113.276 L 134.837 113.900 134.731 120.200 " stroke="none" fill="#000000" fill-rule="evenodd"></path></g></svg>